<?xml version="1.0" encoding="UTF-8" standalone="no"?>
<!-- Created with Inkscape (http://www.inkscape.org/) -->

<svg
   xmlns:dc="http://purl.org/dc/elements/1.1/"
   xmlns:cc="http://creativecommons.org/ns#"
   xmlns:rdf="http://www.w3.org/1999/02/22-rdf-syntax-ns#"
   xmlns:svg="http://www.w3.org/2000/svg"
   xmlns="http://www.w3.org/2000/svg"
   xmlns:sodipodi="http://sodipodi.sourceforge.net/DTD/sodipodi-0.dtd"
   xmlns:inkscape="http://www.inkscape.org/namespaces/inkscape"
   width="210mm"
   height="297mm"
   viewBox="0 0 210 297"
   version="1.1"
   id="svg869"
   inkscape:version="0.92.4 (5da689c313, 2019-01-14)"
   sodipodi:docname="BlogLogo.svg">
  <defs
     id="defs863" />
  <sodipodi:namedview
     id="base"
     pagecolor="#403e41"
     bordercolor="#666666"
     borderopacity="1.0"
     inkscape:pageopacity="0.94117647"
     inkscape:pageshadow="2"
     inkscape:zoom="0.98994949"
     inkscape:cx="275.15072"
     inkscape:cy="530.58401"
     inkscape:document-units="mm"
     inkscape:current-layer="layer1"
     showgrid="false"
     showborder="false"
     inkscape:pagecheckerboard="false"
     inkscape:window-width="2560"
     inkscape:window-height="1417"
     inkscape:window-x="-8"
     inkscape:window-y="-8"
     inkscape:window-maximized="1" />
  <metadata
     id="metadata866">
    <rdf:RDF>
      <cc:Work
         rdf:about="">
        <dc:format>image/svg+xml</dc:format>
        <dc:type
           rdf:resource="http://purl.org/dc/dcmitype/StillImage" />
        <dc:title></dc:title>
      </cc:Work>
    </rdf:RDF>
  </metadata>
  <g
     inkscape:label="Layer 1"
     inkscape:groupmode="layer"
     id="layer1">
    <path
       style="font-style:normal;font-variant:normal;font-weight:500;font-stretch:normal;font-size:199.56639099px;line-height:1.25;font-family:GeosansLight;-inkscape-font-specification:'GeosansLight, Medium';font-variant-ligatures:normal;font-variant-caps:normal;font-variant-numeric:normal;font-feature-settings:normal;text-align:start;letter-spacing:0px;word-spacing:0px;writing-mode:lr-tb;text-anchor:start;opacity:1;fill:#82aaff;fill-opacity:1;stroke:none;stroke-width:5.24614477"
       d="m 61.955078,51.792969 c 19.425887,49.573951 38.214492,99.444931 58.038772,148.833191 3.55105,8.87824 2.78123,-6.16971 2.90263,-9.47577 0,-21.50065 0,-43.0013 0,-64.50195 5.58887,1.00875 13.86223,-2.97285 16.15022,4.17207 15.26334,23.11022 30.52974,46.21842 45.79119,69.32988 3.95562,-0.92933 15.05918,1.96909 13.96897,-1.66231 -15.97497,-23.97435 -31.94932,-47.94912 -47.92405,-71.92363 15.55082,-0.11704 32.56279,-7.80082 37.87696,-23.4082 6.07944,-16.17029 1.71634,-36.806172 -13.43165,-46.425781 -16.4639,-10.950236 -37.20542,-6.81391 -55.69726,-7.585938 -19.57814,-0.0047 -39.156247,-0.05604 -58.734376,-0.07813 0.352865,0.908854 0.70573,1.817709 1.058594,2.726563 z m 85.427732,9.792969 c 12.56319,-0.345328 27.79242,5.887326 30.36914,19.648437 2.54989,11.332546 -1.7286,25.074485 -13.20312,29.984375 -12.83781,5.55808 -27.30469,1.94101 -40.81445,2.98828 -1.9508,-4.3285 -0.28255,-12.27605 -0.8379,-17.999999 0,-11.540364 0,-23.080729 0,-34.621093 8.16211,0 16.32422,-10e-7 24.48633,0 z"
       id="path848"
       inkscape:connector-curvature="0" />
    <path
       style="font-style:normal;font-variant:normal;font-weight:500;font-stretch:normal;font-size:199.56639099px;line-height:1.25;font-family:GeosansLight;-inkscape-font-specification:'GeosansLight, Medium';font-variant-ligatures:normal;font-variant-caps:normal;font-variant-numeric:normal;font-feature-settings:normal;text-align:start;letter-spacing:0px;word-spacing:0px;writing-mode:lr-tb;text-anchor:start;opacity:1;fill:#fcfcfa;fill-opacity:1;stroke:none;stroke-width:4.98919249"
       d="M 59.035156,53.882807 C 39.725718,103.81698 20.417829,153.75175 1.1074218,203.68554 c 5.3174638,-0.82119 13.7735232,2.94053 14.2119732,-5.00669 4.874004,-12.56743 9.748007,-25.13486 14.622011,-37.70229 20.704427,0 41.408854,0 62.113281,0 5.455001,14.23636 10.910633,28.47248 16.365233,42.70898 4.4591,-0.91861 15.86923,2.92039 10.69833,-4.58914 C 99.710758,149.0865 80.305181,99.075841 60.896484,49.066401 c -0.620442,1.605469 -1.240885,3.210938 -1.861328,4.816406 z m 28.085938,94.912113 c -17.480469,0 -34.960938,0 -52.441407,0 8.740235,-22.62826 17.480469,-45.25651 26.220703,-67.884769 8.740235,22.628259 17.480469,45.256509 26.220704,67.884769 z"
       id="path846"
       inkscape:connector-curvature="0" />
  </g>
</svg>
